<?xml version="1.0" standalone="no"?>
<!DOCTYPE svg PUBLIC "-//W3C//DTD SVG 20010904//EN"
 "http://www.w3.org/TR/2001/REC-SVG-20010904/DTD/svg10.dtd">
<svg version="1.0" xmlns="http://www.w3.org/2000/svg"
 width="260.000000pt" height="260.000000pt" viewBox="0 0 260.000000 260.000000"
 preserveAspectRatio="xMidYMid meet">
<metadata>
Created by potrace 1.11, written by Peter Selinger 2001-2013
</metadata>
<g transform="translate(0.000000,260.000000) scale(0.100000,-0.100000)"
fill="#000000" stroke="none">
<path d="M1285 2334 c-272 -32 -479 -128 -660 -309 -199 -198 -293 -430 -293
-723 1 -335 128 -612 375 -814 187 -152 437 -239 693 -238 63 0 129 2 145 5
56 10 238 57 254 65 9 5 51 24 93 43 101 46 231 133 309 206 l64 59 -45 49
c-187 202 -264 283 -270 283 -3 0 -22 -14 -41 -31 -77 -70 -190 -136 -288
-170 -251 -87 -526 13 -658 239 -115 195 -103 486 26 662 217 296 611 304 905
19 l59 -58 59 72 c33 40 70 83 81 97 12 14 51 61 87 105 36 44 69 83 74 87 13
9 -6 30 -89 97 -121 98 -226 155 -380 205 -170 56 -321 71 -500 50z"/>
</g>
</svg>
